<?xml version="1.0" encoding="windows-1252"?>
<!-- Generator: Adobe Illustrator 23.0.3, SVG Export Plug-In . SVG Version: 6.00 Build 0)  -->
<svg version="1.2" baseProfile="tiny" id="Layer_1" xmlns="http://www.w3.org/2000/svg" xmlns:xlink="http://www.w3.org/1999/xlink" x="0px" y="0px" viewBox="0 0 200 200" xml:space="preserve">
<path fill="none" d="M66.6,89.4c0,5,0.6,9.9,1.8,14.6l28-18.5l1.5,3.4l-28.5,18.8l0,0l51.7-34.1L85,45.4C73.3,57,66.6,73,66.6,89.4z  "/>
<polygon fill="none" points="47.7,122 58.2,115.1 58.2,115.1 "/>
<polygon fill="none" points="63.8,126.8 54.8,132.8 63.8,126.8 "/>
<path fill="none" d="M103.1,101l1.5,3.4l-28.1,18.5c11,17,30.1,28.3,51.8,28.3c0.4,0,0.8,0,1.2,0L127,85.2l-52.4,34.5l0,0L103.1,101  z"/>
<path fill="#010101" d="M66.6,89.4c0-16.4,6.7-32.4,18.5-44l36.1,28.2l10.7-7L95.7,37.4c-0.1-0.2,0-0.4,0.2-0.5  c3-1.9,6.2-3.5,9.5-4.8c2.5-1,3.8-3.9,2.9-6.4l-0.9-2.6c-0.7-2-2.7-3.4-4.8-3.4h0c-0.7,0-1.3,0.1-1.9,0.4c-13.8,5.5-25.6,15-34,27.5  C58.1,60,53.7,74.5,53.7,89.4c0,7.7,1.2,15.1,3.3,22.1l11.3-7.5C67.2,99.3,66.6,94.4,66.6,89.4z"/>
<polygon fill="#010101" points="58.2,115.1 58.2,115.1 69.4,107.7 69.4,107.7 "/>
<polygon fill="#010101" points="74.6,119.7 74.6,119.7 63.8,126.8 63.8,126.8 "/>
<path fill="#010101" d="M129.6,151.1c-0.4,0-0.8,0-1.2,0c-21.7,0-40.8-11.3-51.8-28.3L65.7,130c13.3,20.5,36.4,34.1,62.6,34.1  c10.5,0,20.7-2.1,30.2-6.4c1.3-0.6,2.3-1.6,2.7-2.9c0.5-1.3,0.4-2.7-0.2-4l-1.2-2.5c-0.8-1.7-2.6-2.9-4.6-2.9c-0.7,0-1.4,0.1-2,0.4  c-3.2,1.4-6.6,2.6-10.1,3.4c0,0-0.1,0-0.1,0c-0.1,0-0.3-0.1-0.4-0.3l-4.3-71.4L127,85.2L129.6,151.1z"/>
<path fill="#010101" d="M165.1,54.1l-1.6-2.4c-0.9-1.4-2.5-2.3-4.2-2.3c-1,0-1.9,0.3-2.7,0.8l-24.8,16.3l-10.7,7l-51.7,34.1  l-11.1,7.3L47.7,122l-2.1-3.2c-0.8-1.2-2.1-1.9-3.5-1.9c-1.6,0-3.1,0.9-3.8,2.3L29,137.6c-0.7,1.3-0.6,2.9,0.2,4.1  c0.8,1.3,2.1,2,3.6,2c0.1,0,0.2,0,0.2,0l20.6-1.2c1.5-0.1,2.9-1,3.5-2.3c0.7-1.3,0.6-3-0.2-4.2l-2.1-3.2l9-5.9l10.8-7.1L127,85.2  l11.4-7.5l25.2-16.6c1.1-0.7,1.9-1.9,2.2-3.2C166.1,56.6,165.8,55.3,165.1,54.1z"/>
</svg>